# xmcd
#
# Track frame offsets: 
#        150
#        14093
#        57390
#        74930
#        88395
#        102236
#        114339
#        141880
#        164379
#        177265
#        190489
#        215158
#        234347
#        248814
#
# Disc length: 3534 seconds
#
# Revision: 1
# Processed by: cddbd v1.5.1PL0 Copyright (c) Steve Scherf et al.
# Submitted via: ExactAudioCopy v0.95a5
#
DISCID=da0dcc0e
DTITLE=Van Morrison - Van Morrison
DYEAR=2002
DGENRE=Blues
TTITLE0=Brown Eyed Girl
TTITLE1=T.B. Sheets
TTITLE2=Spanish Rose
TTITLE3=Goodbye Baby (Baby Goodbye)
TTITLE4=Ro Ro Rosey
TTITLE5=Midnight Special
TTITLE6=Beside You
TTITLE7=It's All Right
TTITLE8=Send Your Mind
TTITLE9=The Smile You Smile
TTITLE10=The Back Boom
TTITLE11=Joe Harper Saturday Morning
TTITLE12=Chick-A-Boom
TTITLE13=Brown Eyed Girl (Alternate Take)
EXTD=
EXTT0=
EXTT1=
EXTT2=
EXTT3=
EXTT4=
EXTT5=
EXTT6=
EXTT7=
EXTT8=
EXTT9=
EXTT10=
EXTT11=
EXTT12=
EXTT13=
PLAYORDER=
